<svg width="32" height="32" viewBox="0 0 32 32" fill="none" xmlns="http://www.w3.org/2000/svg">
<path d="M25 5H22V4C21.9984 3.47005 21.7872 2.96227 21.4125 2.58753C21.0377 2.2128 20.5299 2.00158 20 2H12C11.4701 2.00158 10.9623 2.2128 10.5875 2.58753C10.2128 2.96227 10.0016 3.47005 10 4V5H7C6.47005 5.00158 5.96227 5.2128 5.58753 5.58753C5.2128 5.96227 5.00158 6.47005 5 7V28C5.00158 28.5299 5.2128 29.0377 5.58753 29.4125C5.96227 29.7872 6.47005 29.9984 7 30H14V28H7V7H10V10H22V7H25V12H27V7C26.9984 6.47005 26.7872 5.96227 26.4125 5.58753C26.0377 5.2128 25.5299 5.00158 25 5ZM20 8H12V4H20V8Z" fill="#0A62A9"/>
<path d="M21.6455 21.3849L22.2245 19.6713C22.3462 19.3108 22.8631 19.3108 22.9849 19.6713L23.5638 21.3849C23.843 22.2114 24.5004 22.86 25.338 23.1355L27.0748 23.7067C27.4402 23.8268 27.4402 24.3368 27.0748 24.4569L25.338 25.0281C24.5004 25.3036 23.843 25.9523 23.5638 26.7787L22.9849 28.4923C22.8631 28.8529 22.3462 28.8529 22.2245 28.4923L21.6455 26.7787C21.3663 25.9523 20.709 25.3036 19.8713 25.0281L18.1345 24.4569C17.7691 24.3368 17.7691 23.8268 18.1345 23.7067L19.8713 23.1355C20.709 22.86 21.3663 22.2114 21.6455 21.3849Z" fill="#0A62A9"/>
<path d="M26.3393 18.6825L26.6117 17.8761C26.669 17.7064 26.9123 17.7064 26.9696 17.8761L27.242 18.6825C27.3734 19.0714 27.6827 19.3766 28.077 19.5063L28.8943 19.7751C29.0662 19.8317 29.0662 20.0716 28.8943 20.1282L28.077 20.397C27.6827 20.5266 27.3734 20.8318 27.242 21.2208L26.9696 22.0272C26.9123 22.1968 26.669 22.1968 26.6117 22.0272L26.3393 21.2208C26.2079 20.8318 25.8986 20.5266 25.5044 20.397L24.687 20.1282C24.5151 20.0716 24.5151 19.8317 24.687 19.7751L25.5044 19.5063C25.8986 19.3766 26.2079 19.0714 26.3393 18.6825Z" fill="#0A62A9"/>
</svg>
